<svg xmlns="http://www.w3.org/2000/svg" width="72" height="63"><path d="M53.076 26.459H19.924a7.051 7.051 0 0 0-7.043 7.041v11.581a7.051 7.051 0 0 0 7.044 7.041h33.151a7.051 7.051 0 0 0 7.044-7.041V33.5a7.051 7.051 0 0 0-7.044-7.041zm5.354 18.622a5.359 5.359 0 0 1-5.354 5.352H19.924a5.359 5.359 0 0 1-5.354-5.352V33.5a5.359 5.359 0 0 1 5.354-5.352h33.152a5.359 5.359 0 0 1 5.353 5.352v11.581zM56.151 6.513h-39.3A8.2 8.2 0 0 0 8.655 14.7v33.1a8.2 8.2 0 0 0 8.194 8.2h39.3a8.2 8.2 0 0 0 8.194-8.191V14.7a8.2 8.2 0 0 0-8.192-8.187zm6.5 41.3a6.51 6.51 0 0 1-6.5 6.5h-39.3a6.51 6.51 0 0 1-6.5-6.5V14.7a6.51 6.51 0 0 1 6.5-6.5h39.3a6.51 6.51 0 0 1 6.5 6.5v33.1zm-38.468-23H32.7v.008h7.6v-.008h8.515L48.85 24c.01-.206.014-.4.014-.587a12.364 12.364 0 0 0-24.729 0c0 .189 0 .381.014.587zm5.54-9.632l1.193 1.862.712-.456.712-.456-1.23-1.92a10.606 10.606 0 0 1 4.541-1.426v2.333h.789l-1.251 6.136a3.81 3.81 0 0 0-2.09 1.869H25.83a10.6 10.6 0 0 1 .605-3.252l1.785.914.385-.752.385-.752-1.865-.956a10.745 10.745 0 0 1 2.602-3.151zm10.929.951l1.423.911 1.193-1.862a10.739 10.739 0 0 1 2.6 3.146l-1.865.956.385.752.385.752 1.785-.914a10.6 10.6 0 0 1 .605 3.252H39.9a3.807 3.807 0 0 0-2.116-1.877l-1.3-6.127h.864v-2.342a10.6 10.6 0 0 1 4.538 1.421zm.635 20.667h-1.823l-1.807 2.124c-.069.083-.144.176-.221.272V34.01h-1.447v9.116h1.448v-2.357l.349-.388 1.976 2.745h1.79L38.8 39.443zm4.638.571a2.233 2.233 0 0 0-1.724-.706 3.06 3.06 0 0 0-2.873 3.352 2.862 2.862 0 0 0 2.73 3.084 2.406 2.406 0 0 0 1.733-.671v.151a1.611 1.611 0 0 1-1.733 1.892 3.152 3.152 0 0 1-1.649-.44l-.2-.127-.394 1.195.119.08a4 4 0 0 0 2.087.524 3.356 3.356 0 0 0 2.293-.762 3.58 3.58 0 0 0 .912-2.86v-3.465c0-.711.023-1.175.049-1.627l.011-.2h-1.325zm-.147 3.03a1.69 1.69 0 0 1-.076.518 1.4 1.4 0 0 1-1.324.98 1.7 1.7 0 0 1-1.573-1.954c0-1.235.637-2.064 1.585-2.064a1.383 1.383 0 0 1 1.336 1.02 1.352 1.352 0 0 1 .052.433V40.4zm-14.852-5.847H28.72v6.319h-3.006l4.109 4.285 4.109-4.285h-3.006v-6.319z" fill-rule="evenodd"/></svg>