<svg xmlns="http://www.w3.org/2000/svg" width="72" height="63"><path d="M49.139 58.833a3.131 3.131 0 0 0 .169-2.7.9.9 0 0 0-.088-.169l-1.837-2.754a.891.891 0 0 0-.742-.4h-.073a.891.891 0 0 0-.742.4l-1.837 2.757a.9.9 0 0 0-.089.169 3.131 3.131 0 0 0 .169 2.7 2.158 2.158 0 0 0 .624.6h-6.111a2.159 2.159 0 0 0 .624-.6 3.132 3.132 0 0 0 .169-2.7.9.9 0 0 0-.088-.169l-1.838-2.757a.891.891 0 0 0-.742-.4h-.073a.891.891 0 0 0-.742.4l-1.837 2.757a.887.887 0 0 0-.089.169 3.132 3.132 0 0 0 .169 2.7 2.157 2.157 0 0 0 .624.6h-6.111a2.159 2.159 0 0 0 .624-.6 3.131 3.131 0 0 0 .169-2.7.892.892 0 0 0-.088-.169l-1.838-2.757a.891.891 0 0 0-.742-.4H26.7a.891.891 0 0 0-.741.4l-1.837 2.757a.9.9 0 0 0-.089.169 3.132 3.132 0 0 0 .169 2.7 2.159 2.159 0 0 0 .624.6h-3.9V63h31.5v-3.567h-3.9a2.156 2.156 0 0 0 .613-.6zm-11.406-1.005a1.2 1.2 0 0 1-.952.278h-.22a1.208 1.208 0 0 1-.951-.276 1.351 1.351 0 0 1-.008-.969l1.069-1.6 1.069 1.6a1.37 1.37 0 0 1-.007.967zm-9.934 0a1.2 1.2 0 0 1-.952.278h-.22a1.209 1.209 0 0 1-.951-.276 1.352 1.352 0 0 1-.008-.969l1.069-1.6 1.069 1.6a1.371 1.371 0 0 1-.006.967zm19.867 0a1.208 1.208 0 0 1-.951.276h-.22a1.208 1.208 0 0 1-.951-.276 1.352 1.352 0 0 1-.008-.969l1.069-1.6 1.068 1.6a1.351 1.351 0 0 1-.007.971zm15.758-30.949a2.887 2.887 0 0 0-.313-.662 4.873 4.873 0 0 0-2.494-2.523 4.712 4.712 0 0 0-1.882-.384 5.325 5.325 0 0 0-1.857.339l-1.248.357a6.744 6.744 0 0 0-1.56-3.406 10.271 10.271 0 0 0-5.914-3.1l-3.6-.744a5.442 5.442 0 0 0 .249-4.615 4.622 4.622 0 0 0-3.426-2.568l-4.938-1.021a5.657 5.657 0 0 0-1.141-.121 4.492 4.492 0 0 0-3.022 1.119 5.445 5.445 0 0 0-1.6 4.336l-3.6-.743a14.078 14.078 0 0 0-2.839-.311c-4.151 0-6.026 2.263-6.774 3.611a.892.892 0 0 0 .6 1.306l30.854 6.381H18.073l-1.679-.48a5.324 5.324 0 0 0-1.857-.339 4.713 4.713 0 0 0-1.882.385 4.872 4.872 0 0 0-2.495 2.524 2.864 2.864 0 0 0-.312.662 5.013 5.013 0 0 0 .328 4.2 5.066 5.066 0 0 0 3.017 2.265l4 1.4v7.972a8.3 8.3 0 0 0 8.72 8.4h21.45a8.3 8.3 0 0 0 8.72-8.4V34.75l4-1.4a5.067 5.067 0 0 0 3.017-2.267 5.014 5.014 0 0 0 .324-4.204zm-3.838 4.755c-.022.006-.044.012-.066.02l-3.437 1.206v-2.305l2.805-.985.081-.029a.945.945 0 0 0 .155-.041c.042-.015.087-.035.13-.055a.892.892 0 0 0 .416-1.185 1.091 1.091 0 0 1-.05-.124 2.251 2.251 0 0 0-.181-.414.891.891 0 0 0-.923-.432 1.447 1.447 0 0 0-.145.033.947.947 0 0 0-.172.067h-.006l-.088.024-2.024.578V25.73l1.322-.378a.8.8 0 0 0 .076-.026 3.577 3.577 0 0 1 1.254-.234 2.938 2.938 0 0 1 1.174.238 3.133 3.133 0 0 1 1.6 1.681.886.886 0 0 0 .078.139 1.089 1.089 0 0 1 .136.278 3.077 3.077 0 0 1-2.135 4.206zM47.363 49.34H25.91a6.573 6.573 0 0 1-6.938-6.618V25.911H54.3v16.811a6.573 6.573 0 0 1-6.937 6.618zM13.687 31.634a3.076 3.076 0 0 1-2.143-4.2 1.088 1.088 0 0 1 .136-.277.924.924 0 0 0 .078-.14 3.133 3.133 0 0 1 1.605-1.681 2.938 2.938 0 0 1 1.174-.239 3.575 3.575 0 0 1 1.254.235.788.788 0 0 0 .076.026l1.323.372v2.263l-2.024-.579-.087-.024h-.006a.9.9 0 0 0-.169-.067 1.352 1.352 0 0 0-.15-.034.891.891 0 0 0-.921.434 2.267 2.267 0 0 0-.179.412 1.115 1.115 0 0 1-.051.128.892.892 0 0 0 .305 1.123l.016.014a.893.893 0 0 0 .261.12l.228.063 2.777.975v2.302l-3.437-1.206zm10.557-17.02a12.323 12.323 0 0 1 2.478.275l4.161.861.918.19.918.19 2.465.51.908.188.908.186.516.106.908.188.908.192 2.465.51.919.19.918.19 4.161.861c3.789.783 5.263 2.556 5.816 4.031l-33.832-7a5.851 5.851 0 0 1 4.465-1.669zm8.22-.755a3.775 3.775 0 0 1 1-2.98 2.674 2.674 0 0 1 1.832-.663 3.9 3.9 0 0 1 .78.084l4.943 1.022a2.88 2.88 0 0 1 2.168 1.568 3.775 3.775 0 0 1-.258 3.135l-.2.354-2.538-.525.464-.886a.892.892 0 0 0-.609-1.287l-4-.828a.892.892 0 0 0-1.069.94l.074 1-2.538-.525zm4.375.979l1.69.349-.152.291-1.514-.313zM22.545 42.866V27.733h-1.783v15.234a.887.887 0 0 0 .017.175c.034.171.873 4.181 4.149 4.363l.049-.891.049-.89a1.723 1.723 0 0 1-.21-.025c-1.562-.263-2.166-2.404-2.271-2.833zM16.849 22.6h.033a.892.892 0 0 0 .231-1.743 10.613 10.613 0 0 1-4.313-3.025l-.04-.049a2.753 2.753 0 0 1-.8-2.23c.254-2.045 2.779-3.791 2.8-3.807a.891.891 0 0 0-1-1.479C9.584 13.069 7.8 15.534 8.33 17.8c.855 3.682 7.631 4.692 8.4 4.795a.856.856 0 0 0 .119.005zm-6.669-6.33a4.691 4.691 0 0 0 1.227 2.671l.08.1a2.907 2.907 0 0 1-1.421-1.641 1.937 1.937 0 0 1 .114-1.13zm2.271-13.5c4.044.612 6.4 1.8 6.8 3.421.649 2.589-3.378 6.275-4.985 7.476a.891.891 0 0 0 .534 1.606.882.882 0 0 0 .326-.062c5.286-2.08 8.76-5.762 8.852-9.381a4.863 4.863 0 0 0-3.057-4.671A11.233 11.233 0 0 0 16.279.094 8.138 8.138 0 0 0 12.1 1.138a.892.892 0 0 0 .351 1.63zm7.739.011a3.076 3.076 0 0 1 2.011 3 6.631 6.631 0 0 1-2.093 4.19 5.6 5.6 0 0 0 .877-4.215c-.432-1.726-1.9-3.008-4.469-3.877a9.586 9.586 0 0 1 3.674.902z" fill-rule="evenodd"/></svg>