<svg xmlns="http://www.w3.org/2000/svg" width="422" height="416"><path d="M12.069 140.768a785.146 785.146 0 0 1 74.095-87.347l-5-3.853A860.233 860.233 0 0 0 .328 213.411c-1.061 2.886 3.362 5.578 5.317 3.093Q74.5 128.976 139.527 38.545c2.409-3.352-3.08-6.428-5.494-3.21A1359.8 1359.8 0 0 0 6.742 240.81a3.183 3.183 0 0 0 5.494 3.208A2647.788 2647.788 0 0 1 192.2 11.332l-5-3.853Q106.052 119.565 31.886 236.456c-2.256 3.556 3.077 6.347 5.494 3.209L211.743 13.277l-5.494-3.21A3318.983 3318.983 0 0 0 16.49 299.371c-2.1 3.59 3.174 6.512 5.493 3.21Q119.452 163.8 227.8 33.157c2.582-3.113-1.8-7.618-4.5-4.5A1378.128 1378.128 0 0 0 53.4 274.685c-1.987 3.676 3.114 6.453 5.494 3.209Q162.679 136.465 280 5.737l-4.5-4.5C193.7 99.659 121.938 205.725 50.438 311.7l5.493 3.209C120.616 218.632 193.21 128.1 265.814 37.754l-5-3.852A3258.576 3258.576 0 0 0 71.161 317.6c-1.789 3.005 2.736 6.771 5 3.853Q197.21 165.116 329.3 17.791l-5-3.853Q210.878 177.622 94.748 339.411c-2.084 2.9 2.769 6.7 5 3.853q105.912-135.5 214.73-268.688l-5-3.853Q204.745 220.129 106.433 373.881c-1.91 2.987 2.676 6.676 5 3.853l226.787-276.01-5-3.853q-83.868 126.413-159.741 257.86c-2.108 3.652 3.082 6.369 5.493 3.21q107.4-140.734 214.793-281.469l-5.494-3.209-198.432 310.066 5.493 3.209A2816.54 2816.54 0 0 1 384.93 124l-5-3.854a2266.325 2266.325 0 0 0-145.36 237.473c-1.937 3.651 3.188 6.563 5.494 3.21q86.391-125.64 180.949-245.367l-5-3.853Q329.925 236.82 251.77 367.214c-2.131 3.557 3.2 6.538 5.494 3.21q66.688-96.6 133.376-193.21l-5.493-3.209q-62.406 106.6-121.4 215.141c-1.959 3.6 3.316 6.679 5.493 3.21q60.267-96.016 127.91-187.087l-5.494-3.209a2073.947 2073.947 0 0 0-119.408 208.981c-1.805 3.634 3.45 6.8 5.494 3.209a1542.477 1542.477 0 0 1 135.814-200.368l-5-3.853q-33.924 76.326-72.944 150.217c-1.91 3.617 3.58 6.834 5.494 3.21q39.006-73.862 72.944-150.218c1.325-2.98-2.54-6.926-5-3.853a1552.717 1552.717 0 0 0-136.802 201.656l5.494 3.209a2074.057 2074.057 0 0 1 119.409-208.981c2.277-3.5-3.11-6.419-5.494-3.209q-67.6 91.007-127.909 187.086l5.493 3.21q58.987-108.528 121.4-215.142c2.1-3.578-3.195-6.538-5.493-3.209L251.77 367.214l5.494 3.21q78.114-130.332 164.246-255.606c2.02-2.937-2.749-6.7-5-3.852q-95.024 120.287-181.94 246.653l5.494 3.21a2266.222 2266.222 0 0 1 145.364-237.478c2.048-2.926-2.716-6.666-5-3.853a2830.591 2830.591 0 0 0-190.589 264.831c-2.2 3.466 3.292 6.649 5.493 3.209L393.764 77.472c2.265-3.539-3.085-6.366-5.494-3.209L173.478 355.731l5.493 3.21q75.835-131.385 159.742-257.86c1.967-2.966-2.687-6.663-5-3.853L106.93 373.237l5 3.853q98.285-153.715 203.042-303.157c2.051-2.926-2.706-6.656-5-3.853Q201.164 203.262 95.245 338.768l5 3.852Q216.368 180.837 329.8 17.148c2.051-2.96-2.592-6.535-5-3.853q-132 147.219-253.141 303.664l5 3.852a3258.935 3258.935 0 0 1 189.656-283.7c2.142-2.866-2.733-6.668-5-3.853C188.374 124.024 115.424 214.974 50.438 311.7c-2.29 3.408 3.215 6.586 5.493 3.209C127.127 209.385 198.542 103.738 280 5.737c2.578-3.1-1.732-7.58-4.5-4.5Q157.79 132.415 53.4 274.685l5.494 3.209A1370.533 1370.533 0 0 1 227.8 33.157l-4.5-4.5Q114.515 159.818 16.49 299.371l5.493 3.21a3318.869 3318.869 0 0 1 189.76-289.3c2.444-3.334-3.049-6.385-5.494-3.21L31.886 236.456l5.494 3.209q74.131-116.84 155.313-228.977c2.106-2.909-2.638-6.576-5-3.853A2662.358 2662.358 0 0 0 6.742 240.81l5.494 3.208A1359.788 1359.788 0 0 1 139.527 38.545l-5.494-3.21Q69.5 125.094 1.146 212.008l5.317 3.092a852.47 852.47 0 0 1 80.2-162.323c1.943-3.065-2.477-6.419-5-3.853a796.292 796.292 0 0 0-75.088 88.634c-2.415 3.311 3.1 6.488 5.494 3.21z" fill="#fff6e5" fill-rule="evenodd"/></svg>