<svg xmlns="http://www.w3.org/2000/svg" width="72" height="63"><path d="M23.321 9.783a.894.894 0 0 0-.758-1.014 6.617 6.617 0 0 0-6.055 2.2.9.9 0 0 0 1.337 1.191 4.828 4.828 0 0 1 4.46-1.62.9.9 0 0 0 1.016-.757zm47.768 16.189l-1.056-1.053a2.394 2.394 0 0 0-3.379 0L62.2 29.364a5.367 5.367 0 0 0-1.414-.189h-.7a6.243 6.243 0 0 0 2.548-2.359 1.808 1.808 0 0 0-.076-2.112c.7-.955 2.047-3.137 1.7-5.369a4.931 4.931 0 0 0-2.518-3.492c-1.521-.93-3.269 1.21-3.927 2.016a26.368 26.368 0 0 0-1.4 1.905.9.9 0 0 0-.5.027c-.124.044-.753.267-1.44.534v-1.99a6.317 6.317 0 0 0 .576-.502 5.224 5.224 0 0 0 1.307-6.279C54.373 7.589 46.319 7.384 43.9 7.413l-1.084.008c-5.054-.135-13.463.39-14.72 5.211A46.189 46.189 0 0 0 23.534 4.9C20.7 1.124 18.1-.474 16.037.276s-3.022 3.639-2.765 8.353a40.307 40.307 0 0 0 .7 5.416 2.793 2.793 0 0 0-1.139 5.347l-2.215 6.423a.9.9 0 0 0-.049.291v3.107a5.373 5.373 0 0 0-.778.151l-4.45-4.445a2.4 2.4 0 0 0-3.379 0L.906 25.973a2.385 2.385 0 0 0 0 3.373l4.933 4.924q-.007.135-.007.271V41.1a2.39 2.39 0 0 0 2.389 2.385h.949v.393a.9.9 0 0 0 .9.894h.23v.651a.865.865 0 0 0 .005.1 4.982 4.982 0 0 1-1.195 2.021.829.829 0 0 0-.066.085c-1.767 2.588-1.182 4.513-.3 7.429l.179.59a42.334 42.334 0 0 0 2.264 5.688A2.94 2.94 0 0 0 13.83 63h9.337a2.94 2.94 0 0 0 2.643-1.666 50.1 50.1 0 0 0 1.468-3.391h28.196a3.9 3.9 0 0 0 3.8-3.072l2.418-11.387h2.083a2.39 2.39 0 0 0 2.388-2.384v-6.56q0-.136-.007-.271l4.933-4.924a2.385 2.385 0 0 0 0-3.373zm-1.267 2.109l-4.175 4.167a5.4 5.4 0 0 0-1.73-2.067l4-4a.6.6 0 0 1 .845 0l1.056 1.054a.6.6 0 0 1 .004.846zM64.371 41.1a.6.6 0 0 1-.6.6H27.828v-.354a2.4 2.4 0 0 0-.258-1.072 2.4 2.4 0 0 0-2.131-1.313H11.468a2.356 2.356 0 0 0-.286.028 2.382 2.382 0 0 0-.61.183c-.044.02-.087.04-.13.063s-.074.042-.11.064a2.4 2.4 0 0 0-.762.724 2.367 2.367 0 0 0-.4 1.319v.358h-.949a.6.6 0 0 1-.6-.6v-6.56a3.587 3.587 0 0 1 2.634-3.449c.1-.028.208-.052.314-.071a3.579 3.579 0 0 1 .636-.058h49.582a3.578 3.578 0 0 1 3.584 3.578v6.56zM52.208 56.154l1.107-1.1 1.107 1.1h-2.214zm-4.224 0l.157-.154.634-.632.633-.632 1.8-1.792.845.844-1.8 1.791-.579.578h-1.69zm-4.122 0l-1.424-1.421 2.218-2.214 2.218 2.214-1.424 1.421h-1.587zm-2.848 0h-1.375l-.579-.578-1.8-1.791-.633-.633-.627-.633-.845-.843-.634-.632-.634-.632-2.219-2.212-.634-.632-.634-.635-1.8-1.792-.634-.632-.238-.238a.887.887 0 0 0 .093-.4v-.387h.807l.182.182.641.634 1.8 1.792.634.632.634.632 2.218 2.214.627.63.636.633.845.843.634.632.634.632 1.8 1.792.633.632.626.636.157.157h-.314zm-6.124 0L36 55.049l1.107 1.1h-2.216zm-4.224 0l.157-.154.634-.632.633-.632 1.8-1.792.845.844-1.8 1.791-.579.578h-1.69zm-7.5 5.057H13.83a1.14 1.14 0 0 1-1.025-.645 41.452 41.452 0 0 1-2.166-5.435l-.18-.6c-.833-2.74-1.216-4 .034-5.86a10.267 10.267 0 0 0 .716-.934 6.482 6.482 0 0 0 .659-1.21 3.349 3.349 0 0 0 .185-.628 2.062 2.062 0 0 0 .035-.522v-.607H24.91v.612a2.321 2.321 0 0 0 .1.814 4.639 4.639 0 0 0 .375.891 7.893 7.893 0 0 0 .486.78c.245.35.482.637.63.809a5.229 5.229 0 0 1 .553 1.033 3.664 3.664 0 0 1 .247 1.511v.071a6.579 6.579 0 0 1-.149 1.042c-.034.157-.073.32-.116.488-.131.508-.3 1.07-.5 1.714l-.18.6c-.063.211-.131.423-.2.636q-.064.194-.131.387c-.064.184-.129.369-.2.551q-.063.173-.128.343c-.116.305-.234.6-.352.895a52.6 52.6 0 0 1-1.158 2.623 1.139 1.139 0 0 1-1.019.641zm33.446-5.4l-.236-.236-1.8-1.791-.634-.633-.634-.632-.845-.843-.634-.632-.629-.633-2.214-2.211-.634-.632-.634-.633-1.8-1.792-.634-.632-.634-.633-.393-.393h1.689l.182.182.64.633 1.8 1.792.632.63.634.632 2.217 2.214.631.632.634.633.845.843.633.632.634.632 1.8 1.792.161.168a2.1 2.1 0 0 1-.775.912zM36 43.876l2.218 2.214L36 48.3l-2.22-2.21zm3.485 3.478l.634-.632.633-.632 1.8-1.792.845.844-1.8 1.792-.633.633-.634.632-2.22 2.213-.845-.844zm2.112 2.108l1.8 1.792-2.218 2.214-1.8-1.792zm1.264-1.262l1.8-1.792 1.8 1.792-1.8 1.792zm4.858 1.265l2.218 2.214-1.8 1.792-2.218-2.214zm-8.236-4.637l-1.344-1.342h2.687zm-6.969 0l-1.344-1.342h2.687zM51.1 46.09l2.218-2.214 2.218 2.214-2.221 2.21zm4.358-2.606h2.687L56.8 44.825zm-5.626 1.342l-1.344-1.342h2.688zm-38.379-4.065a.615.615 0 0 1 .1-.011h13.885a.6.6 0 0 1 .513.295.646.646 0 0 1 .031.058.59.59 0 0 1 .053.243v1.635H10.962v-1.635a.6.6 0 0 1 .011-.106.588.588 0 0 1 .042-.137.6.6 0 0 1 .2-.246.588.588 0 0 1 .238-.096zm17.644 10l1.3-1.3 2.217 2.214-1.8 1.792-1.758-1.754a6.267 6.267 0 0 0 .044-.948zm-.5-2.027a7.584 7.584 0 0 0-.636-1.111.865.865 0 0 0-.066-.085 8.287 8.287 0 0 1-.722-.968l.169-.168 1.8 1.792zm-.677 7.416c.055-.169.108-.339.159-.508l.179-.591c.133-.438.259-.852.371-1.251l.931.929-1.424 1.421h-.22zm29.954-3.3l-1.176-1.174 1.808-1.8zm1.042-5.917l-.633.633-.634.632-2.218 2.214-.845-.844 2.214-2.214.634-.632.634-.632 1.572-1.569-.455 2.14zM2.173 27.237l1.056-1.054a.6.6 0 0 1 .845 0l4 4a5.4 5.4 0 0 0-1.73 2.067l-4.171-4.169a.6.6 0 0 1 0-.844zm10.191-.982l2.283-6.62h6.458l1.4 4.074.3.874.229.664.077.222.271.786v2.918H12.365v-2.917zm.6-9.415a1.009 1.009 0 0 1 1.008-1.007h7.807a1.006 1.006 0 0 1 .644 1.781l-.006.005a1.055 1.055 0 0 1-.092.066 1.007 1.007 0 0 1-.446.157h-7.904a1.01 1.01 0 0 1-1.009-1.001zm2.1-8.31c-.237-4.336.665-6.239 1.588-6.574a1.187 1.187 0 0 1 .4-.066c1.023 0 2.77 1.057 5.045 4.083a46.689 46.689 0 0 1 5 8.785c-.967 2.758.771 5.032 2.164 6.114v2.215a.9.9 0 0 0-.742-.672 8.73 8.73 0 0 0-4.267.413l-.14.056-1.2-3.491a2.8 2.8 0 0 0 1.625-2.1 6.8 6.8 0 0 1 .851.076.894.894 0 1 0 .274-1.768 8.485 8.485 0 0 0-1.427-.1 2.8 2.8 0 0 0-2.459-1.459H15.8a39.16 39.16 0 0 1-.738-5.511zm28.854.67a26.739 26.739 0 0 1 6.712.707c2 .513 3.56 1.316 4.126 2.445.044.089.084.177.12.264.012.029.021.057.032.086.022.058.044.116.062.172.011.034.019.067.029.1.015.051.03.1.041.153l.021.1c.007.03.019.1.026.143s.009.071.013.106.01.091.013.136 0 .07 0 .1v.232c0 .031 0 .085-.009.127s-.007.067-.011.1-.011.083-.018.124l-.017.1c-.006.036-.018.081-.027.121l-.023.092c-.008.03-.023.08-.036.119l-.028.087-.044.119-.031.08a2.922 2.922 0 0 1-.054.12l-.032.071c-.022.044-.044.088-.068.131l-.027.053-.1.176v.006l-.1.161c-.012.019-.025.036-.038.054-.025.036-.05.071-.076.105l-.008.01c0-.034-.008-.068-.012-.1l-.01-.084a7.416 7.416 0 0 0-.033-.207c0-.014 0-.027-.007-.041a5.96 5.96 0 0 0-.055-.251l-.019-.071a4.66 4.66 0 0 0-.052-.184l-.029-.091c-.018-.057-.038-.113-.058-.171l-.035-.094a4.524 4.524 0 0 0-.073-.18l-.035-.082a4.426 4.426 0 0 0-.308-.594l-.012-.02a5.95 5.95 0 0 0-.206-.3l-.022-.03a4.48 4.48 0 0 0-.226-.273l-.039-.027a4.862 4.862 0 0 0-.245-.253l-.039-.038q-.127-.12-.264-.234l-.045-.037q-.137-.112-.282-.219l-.048-.035q-.147-.1-.3-.2l-.05-.032q-.156-.1-.319-.192l-.049-.027q-.167-.093-.34-.181l-.042-.021a8.578 8.578 0 0 0-.362-.171l-.032-.014q-.178-.079-.36-.152l-.041-.017c-.122-.049-.246-.1-.371-.141l-.065-.024c-.119-.043-.24-.083-.361-.123l-.086-.028q-.175-.056-.353-.107l-.1-.03q-.172-.049-.345-.094l-.117-.03q-.168-.043-.337-.083l-.13-.03a17.443 17.443 0 0 0-.329-.072l-.142-.03-.319-.062-.157-.023-.272-.047-.2-.033-.221-.034-.25-.037-.184-.025-.288-.037-.148-.018-.321-.036-.113-.012-.361-.035-.067-.006c-1.1-.1-2.077-.126-2.794-.129h-.524l-1.084.008h-.236a31.887 31.887 0 0 0-5.893.44 18.955 18.955 0 0 0-2.216.528l-.039.012L31.7 11l-.139.046-.1.033a10.387 10.387 0 0 1 3.2-1.227 34.028 34.028 0 0 1 8.123-.636h.031zm16.971 8.216a3.146 3.146 0 0 1 1.6 2.182 5.994 5.994 0 0 1-1.311 3.951l-.072-.05a27.556 27.556 0 0 1-3.3-2.589c1.139-1.757 2.521-3.329 3.083-3.492zm-4.9 4.248a28.973 28.973 0 0 0 4.1 3.311 6.488 6.488 0 0 1 1.037.791 1.17 1.17 0 0 1-.1.246c-.485.967-2.14 1.815-3.1 2.215a35.385 35.385 0 0 1-3.451-5.9l-.031-.064.031-.012c.489-.202 1.066-.42 1.514-.585zm-3.3-1.47v.496a9.655 9.655 0 0 1-.75.2v-.017c.055-.043.111-.088.166-.134l.053-.045c.04-.034.08-.069.12-.1l.057-.051c.046-.041.091-.084.137-.128l.035-.033q.084-.081.168-.168zm1.829 8.978H43.259a39.96 39.96 0 0 0 3.788-6.606 12.49 12.49 0 0 0 2.753.311h.054l.289-.01c.334-.013.63-.032.9-.054.341-.029.634-.066.9-.108a8.7 8.7 0 0 0 .672-.138l.078.167c.224.475.531 1.108.9 1.815.27.523.572 1.087.9 1.658a26.587 26.587 0 0 0 1.917 2.966h-1.88zM38.546 23.5l-.072.05a6 6 0 0 1-1.311-3.95 3.146 3.146 0 0 1 1.6-2.182c.562.163 1.944 1.735 3.087 3.495a27.565 27.565 0 0 1-3.304 2.587zm1.014 1.475a28.973 28.973 0 0 0 4.1-3.311c.458.168 1.049.393 1.543.6a35.659 35.659 0 0 1-3.482 5.966c-.962-.4-2.615-1.243-3.1-2.216a1.164 1.164 0 0 1-.1-.246 6.481 6.481 0 0 1 1.039-.791zm-10.921-8.927a3.4 3.4 0 0 1 .351-1.157c.022-.045.049-.088.075-.132a2.746 2.746 0 0 1 .328-.448 3.812 3.812 0 0 1 .512-.465q.172-.132.366-.255c.1-.061.2-.119.3-.177q.324-.18.692-.341a16.706 16.706 0 0 1 4.363-1.095l.09-.012.2-.024a30.022 30.022 0 0 1 3.52-.205h.053c.254 0 .507 0 .757.01h.031l1.1-.009h.2c4.528-.026 9.525.927 10.64 3.154 1.372 2.739-1.541 4.69-1.663 4.77a.894.894 0 0 0-.409.751v.666l-.316.012a9.3 9.3 0 0 1-3.009-.447.889.889 0 0 0-.689.069 44.245 44.245 0 0 0-2.392-.922.9.9 0 0 0-.5-.027c-.331-.5-.833-1.214-1.4-1.906-.658-.806-2.405-2.946-3.927-2.016a4.93 4.93 0 0 0-2.518 3.492c-.343 2.232 1.006 4.414 1.7 5.369a1.809 1.809 0 0 0-.076 2.112 6.241 6.241 0 0 0 2.548 2.359h-8.504v-8.761a.894.894 0 0 0-.409-.751 5.4 5.4 0 0 1-.9-.77 3.615 3.615 0 0 1-1.114-2.844zm.631 13.126h-4.09v-3.068a.889.889 0 0 0-.049-.291l-.407-1.179-.02-.059c.056-.022.112-.046.169-.067a6.637 6.637 0 0 1 .9-.255 7.124 7.124 0 0 1 2.5-.069.9.9 0 0 0 1-.671v5.659zm-4.89 23.8l-.022-.013-2.239-1.29v-2.614a.894.894 0 0 0-.448-.774l-.276-.159-.8-.463-.8-.463-.833-.48a.9.9 0 0 0-.9 0l-.613.353-.8.463-.8.463-.5.286a.907.907 0 0 0-.448.774v2.571l-.917.529-.816.471-.545.314a.9.9 0 0 0-.448.774v3.131a.894.894 0 0 0 .448.774l2.716 1.565a.9.9 0 0 0 .9 0l2.156-1.242.081-.047.081.047 2.221 1.28a.9.9 0 0 0 .9 0l2.221-1.28.5-.286a.891.891 0 0 0 .431-.609 1.06 1.06 0 0 0 .017-.166v-3.131a.894.894 0 0 0-.467-.774zm-5.873-4.454l.772.445.162.093.641.369.244.141v2.1l-.511.295-1.071.617-.209.121-.022-.012-1.071-.617-.751-.433v-2.065l.464-.268.8-.463.438-.253zm-4.545 7.08v-1.37l.11-.063.087-.05.21-.117 1.385-.8.028-.015.345.2L17.2 54l.4.233v2.1l-.483.278-.3.171-.457.263-.584.337-1.82-1.049V55.6zm6.42 1.333l-.982-.567v-2.093l.145-.084.514-.3 1.071-.617.093-.054 1.817 1.047v2.1l-.318.183-.8.463-.062.035-.637.367-.637-.367z" fill-rule="evenodd"/></svg>