<svg xmlns="http://www.w3.org/2000/svg" width="72" height="63"><path d="M70.321 55.615l-2.915-5.922a6.258 6.258 0 0 0 .345-6.17l-7.14-14.491-.02-.038-.421-.854a3.012 3.012 0 0 0-4.019-1.367l-.714.349c-.053.026-.1.054-.155.083l-.038.022q-.064.038-.126.078l-.023.015a2.976 2.976 0 0 0-.791.771l-.008-.013a2.714 2.714 0 0 0-.138-.21l-.022-.03q-.075-.1-.157-.195l-.022-.024a2.72 2.72 0 0 0-.176-.18l-.019-.017a2.174 2.174 0 0 0-.2-.166l-.013-.009a2.916 2.916 0 0 0-.217-.152 2.054 2.054 0 0 0-.232-.134l-.009-.005q-.115-.058-.234-.107l-.02-.008q-.116-.047-.235-.083l-.028-.009a3.16 3.16 0 0 0-.237-.06l-.037-.007a3.184 3.184 0 0 0-.238-.038h-.037q-.12-.012-.241-.015h-.033q-.121 0-.242.006h-.037a3.406 3.406 0 0 0-.245.029l-.033.006a2.748 2.748 0 0 0-.248.054l-.027.008c-.084.023-.168.05-.251.081l-.017.007a2.858 2.858 0 0 0-.256.11l-1.113.544c-.054.026-.106.055-.158.084l-.045.026q-.056.033-.111.068l-.043.028a2.586 2.586 0 0 0-.12.085l-.022.016a3.012 3.012 0 0 0-.276.237l-.009.009a2.984 2.984 0 0 0-.123.128 2.947 2.947 0 0 0-.23.288l-.019-.029c-.02-.032-.041-.063-.062-.1s-.062-.093-.1-.138-.048-.062-.073-.093-.064-.083-.1-.119l-.063-.069a3.084 3.084 0 0 0 .382-1.495v-1.086a3.121 3.121 0 0 0-3.125-3.114h-.078a3.657 3.657 0 0 0-1.409.281v-1.156l3.607-3.2a3.6 3.6 0 0 0 .351-5.09 3.637 3.637 0 0 0-3.956-1.019V4.469A3.382 3.382 0 0 0 40.113 1.1H22.278a3.382 3.382 0 0 0-3.385 3.371v13.054a4.382 4.382 0 0 0-1.123-.175 4.215 4.215 0 0 0-3.055 1.18 4.055 4.055 0 0 0-1.248 2.913L13.4 31.955 9.8 39a7.7 7.7 0 0 0-.748 4.786l.34 2.072-6.52 5.489a.775.775 0 0 0-.082 1.107l9.956 11.282a.783.783 0 0 0 1.092.079l7.408-6.26a6.625 6.625 0 0 0 6.335-1.168l9.335-7.644 10.449 6.628a9.612 9.612 0 0 0 5.3 1.506l2.918 5.928a.782.782 0 0 0 1.045.356l13.332-6.506a.776.776 0 0 0 .361-1.04zm-13.675 5.808l-2.8-5.685a.782.782 0 0 0-.7-.436h-.052a8.082 8.082 0 0 1-4.89-1.245L38.186 47.7l-1.386-.876-.965-.612-1.226-.778-1.226-.778-1.083-.686-.545-.346a2.645 2.645 0 0 1-1.155-1.638c-.009-.041-.014-.082-.021-.123a2.584 2.584 0 0 1 .368-1.847c.033-.052.07-.1.106-.149a2.642 2.642 0 0 1 .223-.266 2.609 2.609 0 0 1 1.316-.734 2.566 2.566 0 0 1 .255-.044 2.668 2.668 0 0 1 1.724.389l.615.388 6.095 3.855a.78.78 0 0 0 1.118-1l-.079-.157-.384-.769-.666-1.335-.3-.594-.389-.778-.381-.778-4.39-8.776-.735-1.468-.394-.788-.608-1.216-.218-.436-.87-1.74a2.054 2.054 0 0 1 .942-2.746 2.091 2.091 0 0 1 1.571-.1 2.05 2.05 0 0 1 1.187 1.045l.767 1.516.448.872.364.719.07.14.059.116.348.688.752 1.487 2.03 4.012.215.426.014.032.184.373.106.214.675 1.371.729 1.48.054.105.4.819.062.125.291.586.358.726.9 1.837 1.019-.5.384-.187-.074-.15-.748-1.526-.371-.754-.121-.236-.238-.483-.362-.746-1.5-3.043-.2-.409-.142-.287a1.428 1.428 0 0 1 .344-1.71l.051-.043c.038-.03.078-.059.12-.086a1.468 1.468 0 0 1 .132-.075l.011-.006.993-.486.12-.058.041-.017c.031-.014.062-.028.093-.04l.024-.008a1.428 1.428 0 0 1 .787-.048 1.512 1.512 0 0 1 .155.043 1.433 1.433 0 0 1 .628.426c.015.017.03.033.043.051.025.032.049.067.071.1l.011.015c.026.041.049.084.071.128l.356.723.689 1.4.01.022.173.352 2.072 4.2.443.9 1.4-.685-.096-.188-.423-.859-2.17-4.4v-.011a1.433 1.433 0 0 1 .535-1.838 1.378 1.378 0 0 1 .128-.071l1.113-.544a1.445 1.445 0 0 1 1.928.656l.071.143.961 1.95v.007l.02.043 1.042 2.112.591 1.2.7-.343.7-.343-.685-1.389-.948-1.921v-.009l-.007-.016A1.432 1.432 0 0 1 56 28.588a1.356 1.356 0 0 1 .126-.07l.714-.349a1.446 1.446 0 0 1 1.928.656l3.048 6.185.248.5 4.285 8.7a4.72 4.72 0 0 1-.471 4.951.775.775 0 0 0-.077.809l2.774 5.63zM20.455 4.469a1.821 1.821 0 0 1 1.823-1.815h17.835a1.821 1.821 0 0 1 1.823 1.815v1.166H20.455V4.469zm25.823 9.591a2.045 2.045 0 0 1-.206 2.9L43.5 19.242v-5.48a2.068 2.068 0 0 1 2.778.298zM20.455 7.191h21.481v16.525a3.632 3.632 0 0 0 0 4.286v.725l-1.384-2.734a6.8 6.8 0 0 0 .931-2.882 6.73 6.73 0 0 0 .013-1.052 6.8 6.8 0 0 0-2.214-4.609 6.958 6.958 0 0 0-.612-.5 6.874 6.874 0 0 0-9.677 9.531c.067.093.135.184.207.274a6.9 6.9 0 0 0 4.909 2.6l4.343 8.691H35.64l-.232-.146a4.206 4.206 0 0 0-4.709.146h-4.62a12.19 12.19 0 0 0-4.09-6.029l.023-10.373a4.227 4.227 0 0 0-1.557-3.29V7.191zm26.093 18.123V26.4a1.539 1.539 0 0 1-.163.689 2.979 2.979 0 0 0-2.147.188l-.567.277A2.086 2.086 0 0 1 43.5 24.3a2.1 2.1 0 0 1 1.409-.542h.078a1.561 1.561 0 0 1 1.561 1.556zM26.437 39.6h2.958a4.109 4.109 0 0 0-.4 2.222 2.211 2.211 0 0 0-.014.241 2.188 2.188 0 0 0 .576 1.478 4.136 4.136 0 0 0 .968 1.115h-4.386a11.652 11.652 0 0 0 .298-5.056zm13.313 1.044L38.1 39.6h1.129zm-9.579-15.2a5.33 5.33 0 0 1-.392-.693 5.3 5.3 0 0 1-.5-2.251 5.339 5.339 0 0 1 7.449-4.881 5.276 5.276 0 0 1 .738.39 5.381 5.381 0 0 1 .641.474 5.3 5.3 0 0 1 1.845 3.9v.112a5.292 5.292 0 0 1-.291 1.726l-.189-.373-.364-.719-.008-.014a4.477 4.477 0 0 0-1.608-4.09 4.528 4.528 0 0 0-7.4 3.478 4.478 4.478 0 0 0 .7 2.4 4.546 4.546 0 0 0 1.941 1.697l.52 1.041a5.362 5.362 0 0 1-3.082-2.194zm-3.582 29.741a5.074 5.074 0 0 1-7.039-.568l-3.818-4.327-1.174 1.027 3.819 4.327a6.725 6.725 0 0 0 1.338 1.164l-6.3 5.326-8.926-10.112 6.249-5.261a.777.777 0 0 0 .262-.719l-.412-2.507a6.159 6.159 0 0 1 .6-3.828l3.691-7.207a.775.775 0 0 0 .085-.348l.066-10.7a2.514 2.514 0 0 1 .773-1.806 2.658 2.658 0 0 1 1.93-.741 2.848 2.848 0 0 1 1.941.84 2.662 2.662 0 0 1 .776 1.89l-.024 10.76a.767.767 0 0 0 .029.207.777.777 0 0 0 .284.417 10.663 10.663 0 0 1 3.7 5.026 10.721 10.721 0 0 1 .412 1.556 10.1 10.1 0 0 1-.349 5.055 9.229 9.229 0 0 1-.3.778q-.093.215-.2.429l.7.341v.008h.02l.685.333c.054-.111.1-.222.154-.333h7.361l2.6 1.652z" fill-rule="evenodd"/></svg>